<svg width="204px" height="204px" viewBox="-40 -40 280 280" version="1.1" xmlns="http://www.w3.org/2000/svg" xmlns:xlink="http://www.w3.org/1999/xlink">
    <g id="页面-1" stroke="none" stroke-width="0" fill="none" fill-rule="evenodd">
        <g id="scroll" fill-rule="nonzero">
            <path d="M189.4,138.54491 L189.4,18.2215569 C189.2,8.14371257 181.4,0 171.5,0 L48.1,0 C21.5,0.407185629 0,22.5988024 0,49.7784431 C0,58.9401198 2.4,66.7784431 6.1,73.7005988 C9.2,79.4011976 14.1,84.7964072 19,88.8682635 C20.3,89.988024 19.7,89.5808383 23.9,92.1257485 C29.7,95.6886228 36.3,97.5209581 36.3,97.5209581 L36.2,169.491018 C36.3,172.850299 36.7,176.209581 37.5,179.161677 C40.3,189.239521 47.1,197.077844 56.6,200.844311 C60.5,202.371257 65,203.491018 69.7,203.491018 L168.3,203.898204 C188,203.898204 203.9,187.610778 203.9,167.658683 C203.9,155.748503 198.2,145.161677 189.4,138.54491 Z" id="路径" fill="#FFEEDA"></path>
            <path d="M191.8,168.57485 C191.4,181.401198 181,191.682635 168.3,191.682635 L100.5,191.377246 C105.9,184.964072 109.2,176.718563 109.2,167.760479 C109.2,153.610778 100.9,143.838323 100.9,143.838323 L168.4,143.838323 C181.4,143.838323 191.9,154.526946 191.9,167.760479 L191.8,168.57485 Z" id="路径" fill="#EBC28E"></path>
            <path d="M38.7,37.7664671 C44.1,37.7664671 48.4,42.245509 48.4,47.6407186 L48.4,167.760479 C48.4,177.431138 56.2,190.562874 70.8,191.580838 C87.2,192.700599 97,178.652695 97,167.760479 C97,155.443114 88,143.838323 75.8,143.838323 L71.9,143.838323 L71.9,157.682635 L79.1,157.682635 L79.1,169.796407 L71.9,169.796407 C65.5,169.796407 60,164.197605 59.8,157.682635 L59.8,143.532934 C59.8,136.916168 65,131.622754 71.5,131.520958 L168.3,131.520958 C188,131.520958 204,147.808383 204,167.760479 C204,187.712575 188.1,204 168.4,204 L70.9,203.694611 C53,203.694611 35.9,191.580838 36.3,167.658683 L36.3,49.9820359 L29.1,49.9820359 L29.1,37.7664671 L38.7,37.7664671 Z M168.4,143.838323 L100.9,143.838323 L101.008081,143.969914 C101.981379,145.175852 109.2,154.564691 109.2,167.760479 C109.2,176.718563 105.9,184.964072 100.5,191.377246 L168.3,191.682635 C181,191.682635 191.4,181.401198 191.8,168.57485 L191.9,167.760479 C191.9,154.526946 181.4,143.838323 168.4,143.838323 Z M171.5,0 C181.4,0 189.2,8.14371257 189.4,18.2215569 L189.4,128.976048 L188.660094,128.572964 C187.613039,128.011366 185.663636,126.99873 184.2,126.431138 C181.5,125.413174 180.2,125.005988 177.3,124.497006 L177.3,18.2215569 C177.3,14.8622754 174.7,12.5209581 171.5,12.4191617 L48.1,12.4191617 C28.8,13.0299401 12.8,28.9101796 12.2,48.6586826 L12.2,49.8802395 C12.2,61.4850299 17.7,71.1556886 25.5,78.6886228 L26.2011379,79.3986492 C27.3596268,80.5837874 28.1417501,81.5492663 28.2840521,83.5823912 L28.3,83.8802395 C28.5,87.0359281 25.9,89.988024 22.3,89.988024 C20.2,89.988024 19.5,89.1736527 18.7,88.5628743 C7.1,79.0958084 1.42108547e-14,65.5568862 1.42108547e-14,49.7784431 C1.42108547e-14,22.5988024 21.5,0.407185629 48.1,0 L171.5,0 Z M142.3,97.9281437 C145.525,97.9281437 148.176963,100.553134 148.295841,103.807858 L148.3,104.035928 C148.3,107.39521 145.6,110.143713 142.3,110.143713 L69.3,110.143713 L69.3,97.9281437 L142.3,97.9281437 Z M155.1,69.0179641 C158.325,69.0179641 160.976963,71.6429548 161.095841,74.8976781 L161.1,75.1257485 C161.1,78.4850299 158.5,81.2335329 155.1,81.2335329 L69.3,81.2335329 L69.3,69.0179641 L155.1,69.0179641 Z M142.3,40.1077844 C145.525,40.1077844 148.176963,42.7327752 148.295841,45.9874985 L148.3,46.2155689 C148.3,49.5748503 145.6,52.3233533 142.3,52.3233533 L69.3,52.3233533 L69.3,40.1077844 L142.3,40.1077844 Z" id="形状" fill="#190602"></path>
        </g>
    </g>
</svg>
